<svg width="200" height="200" viewBox="0 0 200 200" fill="none" xmlns="http://www.w3.org/2000/svg">
<rect width="200" height="200" fill="white"/>
<path d="M158.121 119.06C158.967 145.91 140.215 169.078 114.705 172.701C111.832 173.174 108.929 173.416 106.021 173.425C101.689 173.441 97.3719 172.893 93.1697 171.794H93.0829C69.5784 166.324 53.1304 144.176 53.9209 119.06C53.9209 97.1331 77.6265 56.7217 92.9961 35.4287C95.4274 32.1668 97.5983 29.358 99.4218 27.0928C101.072 25.0798 103.483 23.9208 106.021 23.9208C108.559 23.9208 110.971 25.0798 112.621 27.0928C113.315 27.9082 114.01 28.8143 114.705 29.7204C129.553 48.6576 158.121 94.9585 158.121 119.06Z" fill="#FDD834"/>
<path d="M129.398 120.588C130.174 145.659 113.986 167.801 90.7681 173.426H90.6818C67.3411 167.945 51.0078 145.753 51.7927 120.588C51.7927 98.6177 75.3331 58.1269 90.5956 36.7921C105.858 58.1269 129.398 98.6177 129.398 120.588Z" fill="#FFE600"/>
<path d="M100.17 184.301C83.8405 184.686 68.0701 178.089 56.5204 166.041C44.9706 153.993 38.6461 137.543 39.0153 120.509C39.0153 91.456 72.8602 38.9915 86.9695 22.0046C90.378 18.1756 95.161 16 100.17 16C105.179 16 109.962 18.1756 113.371 22.0046C127.48 38.9915 161.325 91.456 161.325 120.509C161.694 137.543 155.37 153.993 143.82 166.041C132.27 178.089 116.5 184.686 100.17 184.301ZM100.17 33.9337C84.7766 52.4699 56.4881 99.4118 56.4881 120.509C56.084 132.718 60.5563 144.554 68.8375 153.193C77.1187 161.831 88.4658 166.496 100.17 166.075C111.875 166.496 123.222 161.831 131.503 153.193C139.784 144.554 144.256 132.718 143.852 120.509C143.852 99.4209 115.573 52.479 100.17 33.9337Z" fill="black"/>
</svg>
